<?xml version="1.0" encoding="utf-8"?>
<!-- Generator: Adobe Illustrator 22.1.0, SVG Export Plug-In . SVG Version: 6.00 Build 0)  -->
<svg version="1.1" id="Layer_1" xmlns="http://www.w3.org/2000/svg" xmlns:xlink="http://www.w3.org/1999/xlink" x="0px" y="0px"
	 viewBox="0 0 857 857" style="enable-background:new 0 0 857 857;" xml:space="preserve">
<style type="text/css">
	.st0{fill:#F9D87A;}
	.st1{fill:#2586FD;}
	.st2{fill:#3A4DE2;}
	.st3{fill:#DEDEE0;}
	.st4{fill:#D6D5D8;}
	.st5{fill:#797680;}
	.st6{fill:#56565C;}
	.st7{fill:#AAA9AF;}
</style>
<circle class="st0" cx="430.5" cy="430.5" r="425.1"/>
<path class="st1" d="M600.5,294.9H266c-10.3,0-18.7-8.4-18.7-18.7v-87.6c0-10.3,8.4-18.7,18.7-18.7h334.5c10.3,0,18.7,8.4,18.7,18.7
	v87.6C619.2,286.5,610.9,294.9,600.5,294.9z"/>
<path class="st2" d="M600.5,169.9H433.3v125h167.2c10.3,0,18.7-8.4,18.7-18.7v-87.6C619.2,178.3,610.9,169.9,600.5,169.9z"/>
<path class="st3" d="M600.5,681.9H266c-10.3,0-18.7-8.4-18.7-18.7V257.4h371.9v405.7C619.2,673.5,610.9,681.9,600.5,681.9z"/>
<path class="st4" d="M433.3,257.4v424.4h167.2c10.3,0,18.7-8.4,18.7-18.7V257.4H433.3z"/>
<g>
	<path class="st5" d="M524.6,346.2H341.9c-10.3,0-18.7-8.4-18.7-18.7s8.4-18.7,18.7-18.7h182.7c10.3,0,18.7,8.4,18.7,18.7
		C543.3,337.8,534.9,346.2,524.6,346.2z"/>
	<path class="st5" d="M524.6,413.6H341.9c-10.3,0-18.7-8.4-18.7-18.7s8.4-18.7,18.7-18.7h182.7c10.3,0,18.7,8.4,18.7,18.7
		C543.3,405.2,534.9,413.6,524.6,413.6z"/>
	<path class="st5" d="M524.6,480.9H341.9c-10.3,0-18.7-8.4-18.7-18.7s8.4-18.7,18.7-18.7h182.7c10.3,0,18.7,8.4,18.7,18.7
		C543.3,472.5,534.9,480.9,524.6,480.9z"/>
</g>
<g>
	<path class="st6" d="M524.6,308.8h-91.3v37.5h91.3c10.3,0,18.7-8.4,18.7-18.7S534.9,308.8,524.6,308.8z"/>
	<path class="st6" d="M524.6,376.1h-91.3v37.5h91.3c10.3,0,18.7-8.4,18.7-18.7S534.9,376.1,524.6,376.1z"/>
	<path class="st6" d="M524.6,443.5h-91.3v37.5h91.3c10.3,0,18.7-8.4,18.7-18.7C543.3,451.8,534.9,443.5,524.6,443.5z"/>
</g>
<path class="st7" d="M619.2,550.4v-18.2c-28.9,0-101.9,0-130.9,0c-10.3,0-18.7,8.4-18.7,18.7c0,14.8,0,115.2,0,130.9h18.7
	c4.9,0,9.7-1.9,13.2-5.5l112.2-112.2C617.5,560.5,619.4,555.5,619.2,550.4z"/>
</svg>
