<?xml version="1.0" encoding="utf-8"?>
<!-- Generator: Adobe Illustrator 22.1.0, SVG Export Plug-In . SVG Version: 6.00 Build 0)  -->
<svg version="1.1" id="Capa_1" xmlns="http://www.w3.org/2000/svg" xmlns:xlink="http://www.w3.org/1999/xlink" x="0px" y="0px"
	 viewBox="0 0 512 512" style="enable-background:new 0 0 512 512;" xml:space="preserve">
<style type="text/css">
	.st0{fill:#FFCE55;}
	.st1{fill:#FFFFFF;}
</style>
<circle class="st0" cx="255.4" cy="256.2" r="254.4"/>
<g>
	<path class="st1" d="M137.9,157.5c-4.7,6.2-8.1,7.3-8.1,2.1v-9.5c0-13.7-11.1-24.8-24.8-24.8s-24.8,11.1-24.8,24.8V235
		c0,13.7,11.1,24.8,24.8,24.8h84.9c13.7,0,24.8-11.1,24.8-24.8c0-13.7-11.1-24.8-24.8-24.8c0,0-4.1,0-9.2,0s-6.5-5.8-2.2-12.3
		c19.5-29.6,52.9-48.1,89-48.1c58.7,0,106.4,47.7,106.4,106.4c0,58.7-47.7,106.4-106.4,106.4c-15.6,0-28.3,12.7-28.3,28.3
		s12.7,28.3,28.3,28.3c89.9,0,163-73.1,163-163c0-89.9-73.1-163-163-163C216.1,93.2,168.3,117.6,137.9,157.5z"/>
</g>
</svg>
